<mxfile host="65bd71144e">
    <diagram id="HIP3nbAZw_EuaXWnEj3U" name="Page-1">
        <mxGraphModel dx="446" dy="383" grid="1" gridSize="10" guides="1" tooltips="1" connect="1" arrows="1" fold="1" page="1" pageScale="1" pageWidth="850" pageHeight="1100" math="0" shadow="0">
            <root>
                <mxCell id="0"/>
                <mxCell id="1" parent="0"/>
                <mxCell id="7" value="http://ics2o.mths.ca" style="swimlane;whiteSpace=wrap;html=1;" parent="1" vertex="1">
                    <mxGeometry x="40" y="40" width="760" height="480" as="geometry"/>
                </mxCell>
                <mxCell id="8" value="&lt;font style=&quot;font-size: 38px;&quot;&gt;Cookie Clicker Game&lt;/font&gt;" style="text;html=1;align=center;verticalAlign=middle;resizable=0;points=[];autosize=1;strokeColor=#A50040;fillColor=#d80073;fontColor=#ffffff;" vertex="1" parent="7">
                    <mxGeometry x="160" y="30" width="380" height="60" as="geometry"/>
                </mxCell>
                <mxCell id="9" value="&lt;font style=&quot;font-size: 12px;&quot;&gt;Click on the cookie as many times as possible.&lt;/font&gt;" style="text;html=1;align=center;verticalAlign=middle;resizable=0;points=[];autosize=1;strokeColor=none;fillColor=none;fontSize=38;" vertex="1" parent="7">
                    <mxGeometry x="200" y="100" width="270" height="60" as="geometry"/>
                </mxCell>
                <mxCell id="10" value="" style="shape=image;verticalLabelPosition=bottom;labelBackgroundColor=default;verticalAlign=top;aspect=fixed;imageAspect=0;image=data:image/jpeg,/9j/4AAQSkZJRgABAQEBLAEsAAD/4QB8RXhpZgAASUkqAAgAAAABAA4BAgBaAAAAGgAAAAAAAABDdXRlIGNob2NvbGF0ZSBjaGlwIGNvb2tpZSB2ZWN0b3IgaWxsdXN0cmF0aW9uLiBIYW5kIGRyYXduIHN3ZWV0IGNvb2tpZSBncmFwaGljLiBJc29sYXRlZC7/4QWEaHR0cDovL25zLmFkb2JlLmNvbS94YXAvMS4wLwA8P3hwYWNrZXQgYmVnaW49Iu+7vyIgaWQ9Ilc1TTBNcENlaGlIenJlU3pOVGN6a2M5ZCI/Pgo8eDp4bXBtZXRhIHhtbG5zOng9ImFkb2JlOm5zOm1ldGEvIj4KCTxyZGY6UkRGIHhtbG5zOnJkZj0iaHR0cDovL3d3dy53My5vcmcvMTk5OS8wMi8yMi1yZGYtc3ludGF4LW5zIyI+CgkJPHJkZjpEZXNjcmlwdGlvbiByZGY6YWJvdXQ9IiIgeG1sbnM6cGhvdG9zaG9wPSJodHRwOi8vbnMuYWRvYmUuY29tL3Bob3Rvc2hvcC8xLjAvIiB4bWxuczpJcHRjNHhtcENvcmU9Imh0dHA6Ly9pcHRjLm9yZy9zdGQvSXB0YzR4bXBDb3JlLzEuMC94bWxucy8iICAgeG1sbnM6R2V0dHlJbWFnZXNHSUZUPSJodHRwOi8veG1wLmdldHR5aW1hZ2VzLmNvbS9naWZ0LzEuMC8iIHhtbG5zOmRjPSJodHRwOi8vcHVybC5vcmcvZGMvZWxlbWVudHMvMS4xLyIgeG1sbnM6cGx1cz0iaHR0cDovL25zLnVzZXBsdXMub3JnL2xkZi94bXAvMS4wLyIgIHhtbG5zOmlwdGNFeHQ9Imh0dHA6Ly9pcHRjLm9yZy9zdGQvSXB0YzR4bXBFeHQvMjAwOC0wMi0yOS8iIHhtbG5zOnhtcFJpZ2h0cz0iaHR0cDovL25zLmFkb2JlLmNvbS94YXAvMS4wL3JpZ2h0cy8iIHBob3Rvc2hvcDpDcmVkaXQ9IkdldHR5IEltYWdlcy9pU3RvY2twaG90byIgR2V0dHlJbWFnZXNHSUZUOkFzc2V0SUQ9IjEyMDQ2MDQ1NTQiIHhtcFJpZ2h0czpXZWJTdGF0ZW1lbnQ9Imh0dHBzOi8vd3d3LmlzdG9ja3Bob3RvLmNvbS9sZWdhbC9saWNlbnNlLWFncmVlbWVudD91dG1fbWVkaXVtPW9yZ2FuaWMmYW1wO3V0bV9zb3VyY2U9Z29vZ2xlJmFtcDt1dG1fY2FtcGFpZ249aXB0Y3VybCIgPgo8ZGM6Y3JlYXRvcj48cmRmOlNlcT48cmRmOmxpPktyaXN0eW5hIFZhZ25lcm92YTwvcmRmOmxpPjwvcmRmOlNlcT48L2RjOmNyZWF0b3I+PGRjOmRlc2NyaXB0aW9uPjxyZGY6QWx0PjxyZGY6bGkgeG1sOmxhbmc9IngtZGVmYXVsdCI+Q3V0ZSBjaG9jb2xhdGUgY2hpcCBjb29raWUgdmVjdG9yIGlsbHVzdHJhdGlvbi4gSGFuZCBkcmF3biBzd2VldCBjb29raWUgZ3JhcGhpYy4gSXNvbGF0ZWQuPC9yZGY6bGk+PC9yZGY6QWx0PjwvZGM6ZGVzY3JpcHRpb24+CjxwbHVzOkxpY2Vuc29yPjxyZGY6U2VxPjxyZGY6bGkgcmRmOnBhcnNlVHlwZT0nUmVzb3VyY2UnPjxwbHVzOkxpY2Vuc29yVVJMPmh0dHBzOi8vd3d3LmlzdG9ja3Bob3RvLmNvbS9waG90by9saWNlbnNlLWdtMTIwNDYwNDU1NC0/dXRtX21lZGl1bT1vcmdhbmljJmFtcDt1dG1fc291cmNlPWdvb2dsZSZhbXA7dXRtX2NhbXBhaWduPWlwdGN1cmw8L3BsdXM6TGljZW5zb3JVUkw+PC9yZGY6bGk+PC9yZGY6U2VxPjwvcGx1czpMaWNlbnNvcj4KCQk8L3JkZjpEZXNjcmlwdGlvbj4KCTwvcmRmOlJERj4KPC94OnhtcG1ldGE+Cjw/eHBhY2tldCBlbmQ9InciPz4K/+0AsFBob3Rvc2hvcCAzLjAAOEJJTQQEAAAAAACTHAJQABJLcmlzdHluYSBWYWduZXJvdmEcAngAWkN1dGUgY2hvY29sYXRlIGNoaXAgY29va2llIHZlY3RvciBpbGx1c3RyYXRpb24uIEhhbmQgZHJhd24gc3dlZXQgY29va2llIGdyYXBoaWMuIElzb2xhdGVkLhwCbgAYR2V0dHkgSW1hZ2VzL2lTdG9ja3Bob3RvAP/bAEMACgcHCAcGCggICAsKCgsOGBAODQ0OHRUWERgjHyUkIh8iISYrNy8mKTQpISIwQTE0OTs+Pj4lLkRJQzxINz0+O//bAEMBCgsLDg0OHBAQHDsoIig7Ozs7Ozs7Ozs7Ozs7Ozs7Ozs7Ozs7Ozs7Ozs7Ozs7Ozs7Ozs7Ozs7Ozs7Ozs7Ozs7O//CABEIAmQCZAMBEQACEQEDEQH/xAAbAAEAAgMBAQAAAAAAAAAAAAAAAwUCBAYBB//EABgBAQEBAQEAAAAAAAAAAAAAAAACAQME/9oADAMBAAIQAxAAAAHswAAAAAAAAAAAAAAAAAAAAAAAAAAAAAAAAAAAAAAAAAAAAAAAAAAAAAAAAAAAAAAAAAAAAAAAAAAAAAAAAAAAAAAAAAAAAAAAAAAAAAAAAAAAAAAAAAAAAAAAAAAAAAAAAAAAAAAAAAAAAAAAAAAAAAAAAAAAAAAAAAAAAAAAAAAAAAAAAAAAAAAAAAAAAAAAAAAAAAAAAAAAAAAAAAAAAAAAAAAAAAAAAAAAAAAAAAAAAAAAAAAAAAAAAAAAAAAAAAAAAAAAAAAAAAAAAAAAAAAAAAAAAAAAAAAAAAAAAAAAAAAAAAAAAAAAAAAAAAAAAAAAAAAAAAAAAAAAAAAAAAAAAAAAAAAAAAAAAAAAAAAAAAAAAAAAAAAAAAAAAAAAAAAAAAAAAAAAAAAAAAAAAAAAAAAAAAAAAAAAAAAAAAAAAAAAAAAAAAAAAAAAAAAAAAAAAAAAAAAAAAAAAAAAAAAAAAAAAAAAAAAAAAAAAAAAAAAAAAAAAAAAAAAAAAAAAAAAAAAAAAAAAAAAAAAAAAAAAAAAAAAAAAAAAAAAAAAAAAAAAAAAAAAAAAAAAAAAAAAAAAAAAAAAAAAAAAAAAAAAAAAAAAAAAAAAAAAAAAAAAAAAAAAAAAAAAAAAAAAAAAAAAAAAAAAAAAAAAAAAAAAAAAAAAAAAAAAAAAAAAAAAAAAAAAAAAAAAAAAAAAAAAAAAAAAAAAAAAAAAAAAAAAAAAAAAAAAAAAAAAAAAAAAAAAAAAAAAAAAAAAAAAAAAAAAAAAAAAAAAAAAAAADwgNMiPSY3CYAAAAAAAAAAAAAAAAAAAAAAAAAAAAAAAAAjKArYrWisprYnZM0R7kFZX9Is9y1ub4lAAAAAAAAAAAAAAAAAAAAAAAAAAAAAAITl83Q49LHn0nndO5lzcs0AelX0jGKhuNnc3OvPp6zZAAAAAAAAAAAAAAAAAAAAAAAAAAAAANc4vndv5u4j3KDpPrOi5dAAPCr6Rtzu1NY7lT152/bl0uvQAAAAAAAAAAAAAAAAAAAAAAAAAAAAUJoeT0zzvm5zvWJ8XvLoAAAAIKyNmv6ePaVMgAAAAAAAAAAAAAAAAAAAAAAAAAAAByeM/J6fW54AArOkbk1POgAUvXnFmx1l1zrR9HHuLmQAAAAAAAAAAAAAAAAAAAAAAAAAAA4edl8/fZmpcAAaNzokFTe87mzQBWdI0dSTu1uWEVXenh3Fz6AAAAAAAAAAAAAAAAAAAAAAAAAADkc3Y8fpHoABXXFZWTF7z6e4AAx3NWs3Ioa1TP6vP0+gAAAAAAAAAAAAAAAAAAAAAAAABTHPTunF9D5+wi3K+5tIv3AHmvcAAAAACn7cu178tgAAAAAAAAAAAAAAAAAAAAAAAAAozmvL6IqnoeXSCspLjZi5qmz52AABWdIg1a86lzQK+40ayymtqdh9fn63cAAAAAAAAAAAAAAAAAAAAAAAFcUmLPXORXvHrmWfO9espqnamvKm452AABzvXntxeNzc8rA53rz24uO4u+XSp78e67c/QAAAAAAAAAAAAAAAAAAAAAADk83PyeiHclysjPAFfcaNZuztjFgAAa1TW1m5m78UPDn+3ObFxzvPNr7jpfVwsAAAAAAAAAAAAAAAAAAAAAAADiud7vn74mZlgAAAAAAAAAADDc57rHSd+PSnhWlmAAAAAAAAAAAAAAAAAAAAADhOPW24ddSpyNmaAAAAAA8PQAAACLco7m39HHr9yM4wvC7AAAAAAAAAAAAAAAAAAAAB4cFw7XPHpznXmL7ncuaABoXGlc4ltz6bE6KfrzwMNy95dfcAAACm6xs9+Pa7mofPDpC8N4AAAAAAAAAAAAAAAAAAAAxOD8/a45dOd6xkX3Os80Ae6xx6Dw9AB4Za8GAAABqevzdbWcideZAAAAAAAAAAAAAAAAAAAAAHhwfDrccetP0jYzbCKAElZbeuKzzXBz0VnSItyPctuXSbNFn6o8xW+awMNyp6Rac7lzRrevzeVnUE4AAAAAAAAAAAAAAAAAAAAAIzhuPS44dgAAGtvrOtyrHAGG5lm+gE/TPMQxoFH15yxftTbc781zPr8vfa3gAAAAAAAAAAAAAAAAAAAAAaJzxqc7tfN3AA1KmRs86AAAAAAAKLrzwzbLN3orVqbD1+e/AAAAAAAAAAAAAAAAAAAAAAOROtOVxL5PV7gAc51555tjm78UAAABHuZ5voAMdyDckypcVHXn23o4zAAAAAAAAAAAAAAAAAAAAAA1CoOiK84vh1s4vcigKjpGluXUVtTQAAA16yhuJNzouPUADwj1Lit9HDt+sAAAAAAAAAAAAAAAAAAAAADUOGOkOgB8/53Bz6dBzrLNAAAAAAx3KDrFjFWEUABFqtuNGs6Ltx6jQAAAAAAAAAAAAAAAAAAAAAoDUMDrD0oDk+Ha/53POgAACLcr7myis80AAADwj1WdOenWfQ+3KYAAAAAAAAAAAAAAAAAAAAAAhMSc9PD5/NXnk9AHmvGZZoAouvOWLzqbXnYAAx3NC5sOdxamxqXOXp8/XaAAAAAAAAAAAAAAAAAAAAAAAAA0DlPP2teXQUHXng3fxZ87ArrisrLOdsYsAAUHXnLFx3F7y6elP6OHddYzAAAAAAAAAAAAAAAAAAAAAAAAABRYqPN334ui685ovWuOg5dABhuZ5oAAHPdee1F6tx0PLpU9ufVd+NiAAAAAAAAAAAAAAAAAAAAAAAAAADnsVnn77cVVdI25reigAAAAPCn6RFrfnYqm/9HG6AAAAAAAAAAAAAAAAAAAAAAAAAAABTnO8Otny65YAAAAAi0JMNVPbl0vblbgAAAAAAAAAAAAAAAAAAAAAAAAAAAAgOWndbj1lmqyp2s2452Bjua+5tTUWs8ZGhcY9+XW3OyAAAAAAAAAAAAAAAAAAAAAAAAAAAAAAahzWKbn0gzek5dJ50U3XnFNYXNtzrTuZ+vO/ubYAAAAAAAAAAAAAAAAAAAAAAAAAAAAAAAA5YuypNadjzYdzNs2zFroixAAAAAAAAAAAAAAAAAAAAAAAAAAAAAAAAAOWOpAAAKwjLcAAAAAAAAAAAAAAAAAAAAAAAAAAAAAAAAA5Y6kAAA1SqL8AAAAAAAAAAAAAAAAAAAAAAAAAAAAAAAAhNYpDqgAADA5UvzdPQAAAAAAAAAAAAAAAAAAAAAAAAAAAAAAQHCcenubfd+XRgAAA+dTW9w67Hfj19YAAAAAAAAAAAAAAAAAAAAAAAAAAAAAAMDjorZrOq3PQAAAaRy8VbVN/oAAAAAAAAAAAAAAAAAAAAAAAAAAAAAAAAAAAAAAAAAAAAAAAAAAAAAAAAAAAAAAAAAAAAAAAAAAAAAAAAAAAAAAAAAAAAAAAAAAAAAAAAAAAAAAAAAAAAAAAAAAAAAAAAAAAAAAAAAAAAAAAAAAAAAAAAAAAAAAAAAAAAAAAAAAAAAAAAAAAAAAAAAAAAAAAAAAAAAAAAAAAAAAAAAAAAAAAAAAAAAAAAAAAAAAAAAAAAAAAAAAAAAAAAAAAAAAAAAAAAAAAAAAAAAAAAAAAAAAAAAAAAAAAAAAAAAAAAAAAAAAAAAAAAAAAAAAAAAAAAAAAAAAAAAAAAAAAAAAAAAAAAAAAAAAAAAAAAAAAAAAAAAAAAAAAAAAAAAAAAAAAAAAAAAAAAAAAAAAAAAAAAAAAAAAAAAAAAAAAAAAAAAAAAAAAAAAAAAAAAAAAAAAAAAAAAAAAAAAAAAAAAAAAAAAAAAAAAAAAAAAAAAAAAAAAAAAAAAAAAAAAAAAAAAAAAAAAAAAAAAAAAAAAAAAAAAAAAAAAAAAAAAAAAAAAAAAAAAAAAAAAAAAAAAAAAAAAAAAAAAAAAAAAAAAAAAAAAAAAAAAAAAAAAAAAAAAAAAAAAAAAAAAAAAAAAAAAAAAAAAAAAAAAAAAAAAAAAAAAAAAAAAAAAAAAAAAAAAAAAAAAAAAAAAAAAAAAAAAAAAAAAAAAAAAAAAAAAAAAAAAAAAAAAAAAAAAAAAAAAAAAAAAAAAAAAAAAAAAAAAAAAAAAAAAAAAAAAAAAAAAAAAAAAAAAAAAAAAAAAAAAAAAAAAAAAAAAAAAAAAAAD/8QAMBAAAgIBAQcCBQMFAQAAAAAAAgMBBAAFEBESExQgUCIwFSEjM2AxMkAGJCU0oDX/2gAIAQEAAQUC/wCiYnpXk6lTHPi1HPi1HI1CmWC1Z/ghmCxdrVcMK9qT8mrZdg6amMilXjOlRnSoyaVecnTk4ubS2Bqd5WJ1qseAwGD51jQSDdXa6ejNxLStWxtpSZU4HDuLODOCM4Mji321yBiUHC1i+50RKJWrORKXqsB5tyQsKJZ6ZZ2GXCFcfQX0X9x0Y4kIFAZMQUFUNR1NWgi83rIQWnoniRhRxDHMr4tTHs9qXKiXIXYGvcdpxgYsDzOr2OZgxwLH9vaV9Ikpy3R22SJj+QrNx1sGV2UJczS3AYsDy9m3eK2isCM/d3XD5dZYQAMHl4o+Yrss1zI+fwzLVwNAZiuYQY1LBabY8vrO7n7t/fdAjr9UvAQ2xMRujtkYKIqIgtj0w9Wk2ynyuqOcimOr3uFZMZf2MYCh+IK3xO+Nu6PduCSjQ4Xp8nrBQOnK+0z7+OZylCEsmY3xQLfX723OE+reOLYLQ22LPKnmW4yvYh4kMEOjslbPIXrHS1K+tboLVqUC5rNUcVGIxNWRZj181KT3xlL5M7x+k/KfpftT65yp67OOLpr3kNaLmMkBKIrIiZLdgx2WKgungtjlVJr9hyAePTWRytXlPZCnoyKrm4ICA5eDjq0W86l49883W5jfnDkREfyDLgDhKxGhFvpbKNzrV+MrTx3cdZUnFWFu/kMHjXXLerQ53Hh/boXApaXpq7EB4vTvmOJ+oTg3QsuNXbasSkYpubhJs1cQ2HK2OOw1vw2M430pj5x7FhBgzRC328suCuipWtcX+ZblRTlJ8TP6ab9nK3yW7eUCPAHZun2v19rSv/RIoARgtYtxERHjNP8AlsbWZDa9blT2BG88dEQex7npZGpJybTrGKEgXsVEQDojg2mYgPXFi2C0Nmj/ADtWWnqllSgQrxhGIDWIet9jqJ3TMlO3hGe0GyGGyT7LU86xlD9myox7IqVQqJ8ZbtBUQmi3UJYkKerdrLSVEDlt/g2Po2jeAjUVKkZZLgr6OgVUvGn/AJHVs1seHInfHYuPqkgZym0mp9njCJ7ZiCga6QmfmeagX0VByk+MtO5FbRU8FPLyOopou8KU2Qd2WUFDOcR5XTyFew+ZhCkLJS96rXcGwB6nV/GWLKqq712zbXpNnmV9llXSak/05E8Q+6UcQwuyrK1bldxZcMt8q5Q6ImeV4z4Zzbl6OZqtz+x1PZq9Xn1SbB1UxuR7DGAofiCsEoMfZmd0DGX43Y2Jc1SxUrxvKCWOQuwG21VCnqG3fuyCgu1/ru5Q+13EUDEXq8ln7py1wzW0SrO7ydyqNuvVYQFsb/cWZrxGVbMsnbaRLM6kYikuQR3OnqLPCMigiSyI3bOGdRtiMAPlNSo9QNaxzox8ci1k/wC52cIzPer7mF6rGWXEZ0qg00eWv6fzZr2ebhgLB6Jg4isKfc/THIOW8Nosr1uTlizPFp9CKgeYu6cu3nPbWOJiY9uSzh37JndBPbaZR09dMfNNSt4N0yxVkLw8VizCg5bDxDzBm2SgYiykpzhmciN2x1xScVStX5RXVWX519ZNgW6HIy0rFU2vBi1MFgbL3qOUrmIJlXOqRwTfEpGlft5V02vV/Arfr1ttKs7D0OtOTozhz4bqMYelagzI0i5ORoW/L2lV61GjAdH+Bz6v6i79Rji0/S54tO/A0er+oO+zHFV0Wd+nfgLGrVEXqpZp88eq95RvHRnqVUG7VKfPuZykpR1mWk1UK0apKK/sPqLrahNCvMaWxibnniGDHoL1Wa2lGTfZtVV21dFqVfNOoHXP/px//8QAKBEAAQMDBAICAgMBAAAAAAAAAQACERASMSAhMFBBUQNAImATQqCA/9oACAEDAQE/Af8ATjaV/GrArQrQrQrQrArVaf0ECUGe0BFC4BAzqdtvTLkWekQR3zXRob7R2M67fSAipZ674YqDGy3PHIRAKLY7scF4QM6juYVoURhZCc2O5AlBsa3YQEIjyEN9JHkK72pCZijhHcDPA7CvC3dwWipE9vaU0Qd6kwrx9J489sMJ3ihMBAeTRmOC70pKBnQSvyQM0IjtGtlW+kB5NCJCaaNyeAbGKDJ0N90GZp8g7EUtGotlfkmjgIlQ5ARoEhQTmr8dizP3InPY/HQuAQIP2Cm4Rz2Hx4o32nDyhqcYVpOVBGEDNTJ2CsW7eIiDIRz2Hx4ozCd6+07PYfHSDOyA1ipJCvCuJwhUoabigZqc9h8fDHFCjQdzFG9mzOouAUg/RwUXBNEChx2I1N8otCaZ+jAq/HZB2yDp0EbyFd6QEcJwg0QsHbhed+yYd0739DcbICNbvSLY7SZahjhJhX8rvaefHaNzxf2ozgvGh2O2Y7xXJVvpA+DocPIV4Tca8lQhsYq909u100waHI5W0dkUe7x3LXTS0+EGxykGZClyAhOdHdtf7+i5/rvQSEHhEq32gYMHTcNJcAi4n9BD0XAhAzV3hWhbtVwReEXE/o0lXFXFXFT/AMVtbKcGjibE7qwIiD+gBxCJnjDiP9Of/8QAKBEAAQMCBgICAwEBAAAAAAAAAQACERIxAxAgITBQQVETIjJAYKCA/9oACAECAQE/Af8ATiXgL5V8hVblUVUVW5fIVWg8fwJICOJ6RJOQaSiCNTdxSiIUw1DE9oEHvntnMJ53hDcRrr9omc24nvvnXzIDtwtmjjgoOLU1092THBQUQRqGwlVFTVsVu0prp7kmAnOLtbBJRMlNM7FEQdLSLFUelSU+6smunuDbgZdUFSG24Kjm0wVftqgnGW7ZgSqD+lhu8dsbptjkBJRd4GT78Ab5Kpb7REaGtncr6JzYyBkdo50Kv2i7aBkDBThk6w4HbicnbgHQ/wBZO2bGWGfHYkwFKqOproX1TiPHAHQpanGdBpdupAsr5MO/Y4lv3Jp2HY4uQaSi0j9gXT7oW7DFvk7bZNPhG+prZVYFlLXXREHMBoElfIoDuIEEQULdhiXyfdN96o/UbbsMW+QcI3TnTsNLRJyxBBzaAV8ZVIF0b5sGyxBtouqB7REZtt2GLw/KUTPC15Cc+rQNmzk/s8S2oNJRBH6I+zUGlPMnJt+xO+p3hBxTxB4o11HPDG/ZOZui2NDTtBVMXTjJ4W3RcZV278OGNuyeNkz1+h9TunOnW32g6dj2lMORvwgSvjPKzyFhjz2jrbcVm5P4KHaG37bEb5z/ABCr9pzfI0NPgqgp531/iFKP2E5sbG/bubGQ+zch+J5XeMm2OTG+e4unMhAwqh5CLp5QREFfX2nOlMZN+7dh+v0W4fvvS0FHDKa2VUPARAIkaaTpDCU1oH8ARKOGmtIKIjNliVUVs5UlDDKDAP4aAqGqkBUhR/xW98bBNLieJ0xsq3JpkfwBYCgI4ywFW/05f//EAD8QAAIAAwQIAwYFAQcFAAAAAAECAAMRBBIhMRATICIyQVFhMFBSIzNCcYGhFEBgYpFDcpKgorHB8DRTY4LR/9oACAEBAAY/Av8AETb81F+Zj/qEj3/+Ux7/AOxjC0J/MbkxW+R/Ql52CjqYpKDTT2j2aCSI9vamPaMbx+se7+8e6WPdLHu4wvL9YdJdoZShyrHtEWaIpMDSj3i8jBh1HnxeY11Rzi5YpX/u0X7VOLnpG4gGi6xx6CKoaxnGejPQLQg/tCKiGvLVVWL9lmtLMXLZKw9axelOGHnhlzBVTAlsb0iZwnppZugjWHFmxrCTV5mjd9uspzLryigxJzOihFRGtsjlG6RqbUNXM68j54xPwkEQhPp0EHnGreWxpkRCs63Ja40PPw6GYv8AMb30IgSp9Xk8m6QHQ1U8/OlscrFmO92gDoNu7vNTmBFUau1qK0UCp7xwCL8k7vNIrSqtHN7Ox/iA6GqnI+cNZS4k9KdIrW8xzYx22mIzOEBY10vdYfeFfqNkTZXGOXWKTVKHvFbwipwvGogqwqDGpmGsh8j084sxHHXwN0VKmsc69KRWYLkvpzMUG1RgD84rqhpKH6QbJO45eXcea6yS1CGFY9yh70gPaTeZhu9tN52oI4XA9VIqPyKWuVxIcYWauTDzR686CF+USOt/Qz9I1s43m6dIoYun4DTwCkpL7DOKvJFOxgOhw2AiC9MPKK31P7aQcLrDMQVORibY3+HFfMXmjPlAW1oUPqAziuur8hA3SlnT7xWS5TtmI1k17zDLtoZOoi42DrgRonr3r4EyW3M1HfRNTlnsPOObHRMmDhpT56JNp5Vo3mMizD4jUxQqCIrql/iKCMdi+DcfrFNWH7gw7zOJ+ngUb6GNyYrD90MzmrtnsFFl315Gse2NxfSIuqKAaG7YxKf9vmDf+NYzjP8AMljyFYvzWOOQ6Qy+l9LPcu0amfltqmfu0Uc49BG430/MMvURTmuBi0p3GhvlDOcWLm6vWGnWlyWm43Ty8smN1fQ845sY1qYOuNYVuortAKt52yi9PnGvQRflTDMXmpgOBTSZMoXAM2irTWvdY3zrJXWK+DrpQrXiWJ/caGmTDhCzks2sGa3so/pyYuz5usauflb/ANrQV9JgSl4ngKOQ2cvylpgsxoBmYvtUWWWcB1igy8tmr0fQXkld7MGC7m9MPPZA0YaarLvy4xVhF2zyyP3GArtebrpEV2CzGgEXlkG51rAdcjptbd4/CSD7FeN4EuWKKPLbzsFHUxaQpBUtUU8HKKnYyGzTMR22BK+FMTomLyD6Xs0gb05t5u0CWn1PXy0zH+g6x+ItrkKeGWICSxRHTDauu+Mbjg/kTMbgfnFQQTyAje4mxOhz2hZlN+ZiT5dczk2fPvokWgfA1DFdmcG4r0VXdbqI3+JTQ+FS8P52qEVEVWWoOlZYzdoSX6RTy2ZN9IjWHimmuiZL50whUuM7DpFMVb0nY18oVPxL1i7Llte/0gJz5+DMIzumFJXEiESUxxzXbrolp8MrE+W35rU/3gblySxoo9UahhSZJwI0svwTcRAmrxIYB6+MQecasSr3RqwXc3pjZnapEuSpu3szF+W7IRD2l+KafLWn2mZrF+BOkWSRyXe/5/ES7WvBMwfTfXjlYiC30hAfT4N52oIwVyOtIDKag+HWJc30nGEs6ZuYWWuSinlwmXBfHxRcmreGwLw9i5qvbYxjAg7NGyVcBodfS+3VjQRS99aaO2h7+VINqmZnBfNDLb6HoYNmnYTE++l1bgl8orLJRu0GVNwmD77AmS/eL943gVYcoq2bmu2U/py/uYu0wjUE7jcOkSE90mLmAqigGXmomysJyZd4uthMXiGi/wDBM/10SbvF/ts1IHgThzv6JKDO9XQLNIxmN9oCDFviPXzf8RZ92cP80XHFyaM1MXWFQYpLn0XuIvVvOfiPi62TnzB5xQSQvcmC7G85zMaiQL01unKLzb01uI+c3huTRkwjVWxadH5GKg1HiYRvaKmNRZBXq/SPVMObed3JihhF+xveX/ttFycplP3gXN5m4YvPOa92gSZprXhbYqxoIoJq/wA6MTppW83QRen+xlenmYuSlujz6k2WGi/ZZtOzQEtErPKkYGjDEQGBGI0yUPCTjHAIqpLy+anlAbWDGLsmW0xo9q2oTpziqref1N+grKvQVj2klT3pG4zp9Y9nbW+sYWlDAvTpZpl/ykb1pUfKPa2pj8hDzEvFhTEmJRVQKoMh+hB+1PAnD9sSfl+hJ56J/wDPAmjqhhezH9BVmOq/MxhaJf8Aei2OMfAIhxMmKlH5mKC0S/736AeZ6VrH4i0MXLcorc3uWMGY/FN5dvBKTh7N8VMcFPkYexs15KVXt5+VORwgrZ7syWcq8o19tYMeSeFq5n0PSLku7NXkYafPa9Nb7f4nL//EACwQAQABAwIEBQQDAQEAAAAAAAERACExQVEQIGFxMFCBkdGhscHwYOHxQKD/2gAIAQEAAT8h/wDRN9MBKzXoM/akNH6dKE0evxV98MPvX08l/giod1YKf7VoPesq3VL/AF+KvnRCpWS92mjXumo/iqf4a0adlKfm3SkaGElCV6ugIfp8Ur2xSe9El/Vnz4qmQqZseh+Pmu3LmxQEdZC/Cal2ktYJ2TUqbNY6qus1Iw6AuZKmiQQWpvQV5GigIlnenoxM2oOp2H6V2RFp55rx4U6FF3i62TUmS5UWIxlsebNLWtwuUidRK5Xg5MmRqNF77NGodadvg88y/e8I/NPlyJoRxQ4EIaiwFW8iU7VMMi8OAG7JqHgfVFTwu2t+9qPCWQa+dHNRrHRtQk4iKMDmdg1EoqErcanMbDtrQIiiVIRmbNClAXHSoM5MfrNH9LIecFxlbGdF6NZqQWcHc8yrIsPWiYYL06ly3YVZiL0cqJEEKwKh2J1qlGLo0mCCh0rU6AqQ5d/X+5oZJPN4/TfaSkZVjmxgCJrVi09i6hSqoBBAEBzRYuwmoJl454dWzRDut81GV9hE2/YpRJCWm+amPJ0LbjCF1qEuR1W0AJI4TkuTBPi2GDdxWo6O3mgHkw7z/VWD01oND24C6THFHZBcWKG5SJFMiXXwMiu8QFZha8xU/Bcm2PNB3rVV6FTBg9ugRkIadjL0tfx5i8Qjae7RIZJLQdqsa6EmrrgkGisv3UR+EghBwbn2u9dfAOHah93gHGmX2PC39pNuR64cdDge67u4RFb2L/PMVSf43zXSuCTUIS0AQ+hSF1d5LATg696zXREqdBMSaPAjjcwZKbXR0IaIBbcY5FrjWoUzZ3W760TNhBw6jt1M7Kge5b8eYbtIj2/unUiKm5dYQ/6AwZlV7jMW1N0U+xwWCaEeNjlPlvUiJ7vBUuWhLRdpTOD/ANHX/KiHawV0gb78LYN1WiHbiCmsxDS/jy4xrCmOhXSiBrVu4j5iKkwaFg16VAwBQVJLR4vTymhSToRZmtuKUA18FHt616lYqkDD34Q2Ce/SgPz+QqbMA62/ur2fLoNvKsnavrv2K0q8MqNO4CQdCiwYg5ZiZRvHJjlzQNgTSIwkeDe/T80dYcppUEO6jQIABAGnltnh0P56/vW8PdB0OUmMLWK6rE8YpYbxmoV62irZhzpVFZi+7i5GXNOeoxyajZNL3E6rvakJniHYYn1ashLJYajGmA8tbAurBV59UrJL8+AKMmaMorvTnI8iyVnqVjkIsotsRs5F0Wj3ai0VaLKjgsC7UjYkbFB4lzrry24lpvNqLXlWlvxWMTCf3bmggNgTFFekjf8A4ZEGEOhKkhWRM0QMj3uHRd1GSdQRNvLhf7Jov9+3BYq/5D8UADCScpRAhzO1aXWLdSrULfwmYG7UzjlcCTIldY0RVgbcG0EAfvpRgYP2HlvUxTvpW5Zb00/PCCiVLvLlW3nD0U6kDnLyFLIjYVk47XLUKUnJbvgsxAgTtUkKQs0YUXeZI5lgmhMvXhrIPrf7HlqCI0Neyoxe/hV9qUmnGwcfp+80HHSO5Rg4EnjDgQhojGdBFfYgDoczlDrRE4nBmCjYITM5oN8sXof39vLWzCegOtEcbA70OKP+/wB/TikHtWprSkykjrTZsAfbwYQutTm2btqPopHwrhU1+WmjbfY1g3k9CgRgg8uVVQghcKghnmHegAAsHFXn6QX9ciBKA3aKntjPKBb4FsVBEaU40KBzpyBlaujOqyhEkZN69twJajU66VAKRv7avmljZzUDfgk6OKVLgN7vSUZYVQQfYuQ60w9G1ThmJmtRZhjNud2HcKGYHoihMzLdOlAIOCqmSDRVBwDQ81XWeRp2o1HEXhKLqu3B6gvykBJMKeBajBTwOmEvQOAV4rFL/ZfdebvOdPj+1CnENhSk2ipVK2Jop1SzPEFBLSYyRGNQugdjRL2PnaoPClC5/ZvQ85In/cmiTr0KBQkwniaNzQlK9OAIgBlakDXoUkfX/wBjztit6NIUZ3J/dWpDIbVZBjj719c7AVET+t6PI3IGVamiPBI0OlBgcYDEI5Qfp70AL9R7+fdHbXJ61e5GPnqBA5FmpYyyQ1pXJBQccd4mjeoc+iRTfriOyoEmCQm/tU52wBV+BdH4VBetp9Nv4F+12firis9B9ym5T6SPrWChsH5p+oyfikXNZubU+7E+Kb2n8jQO+5kUaf8AGxLH8E/d9H58Dulfa9TrZHsv8E9N308B0xP0qEbT6z+f4FAC7xU1EjsomQJgTv8A14HUwipW84zQqVI7QrJJ5/Y6Zo7wU0ngxKxSxXrEV2g4SB6NHgshc7iosLqSlQ5t5+AuRkdKS+pMkNDoHguevx4S8OoZVNw60S3vQiBxbA/9OX//2gAMAwEAAgADAAAAEAAAAAAAAAAAAAAAAAAAAAAAAAAAAAAAAAAAAAAAAAAAAAAAAAAAAAAAAAAAAAAAAAAAAAAAAAAAAAAAAAAAAAAAAAAAAAAAAAAAAAAAAAAAAAAAAAAAAAAAAAAAAAAAAAAAAAAAAAAAAAAAAAAAAAAAAAAAAAAAAAAAAAAAAAAAAAAAAAAAAAAAAAAAAAAAAAAAAAAAAAAAAAAAAAAAAAAAAAAAAAAAAAAAAAAAAAAAAAAAAAAAAAAAAAAAAAAAAAAAAAAAAAAAAAAAAAAAAAAAAAAAAAAAAAAAAAAAAAAAAAAAAAAAAAAAAAAAAAAAAAAAAAAAAAAAAAAAAAAAAAAAAAAAAAAAAAAAAAAAAAAAAAAAAAAAAAAAAAAAAAAAAAAAAAAAAAAAAAAAAAAAAAAAAAAAAAAAAAAAAAAAAAAAAAAAAAAAAAAAAAAAAAAAAAAAAAAAAAAAAAAAAAAAAAAAAAAAAAAAAAAAAAAAAAAAAAAAAAAAAAAAAAAAAAAAAAAAAAAAAAAAAAAAAAAAAAAAAAAAAAAAAAAAAAAAAAAAAAAAAAAAAAAAAAAAAAAAAAAAAAAAAAAAAAAAAAAAAAAAAAAAAAAAAAAAAAAAAAAAAAAAAAAAAAAAAAAAAAAAAAAAAAAAAAAAAAAAAAAAAAAAAAAAAAAAAAAAAAAAAAAAAAAAAAAAAAAAAAAAAAAAAAAAAAAAAAAAAAAAAAAAAAAAAAAAAAAAAAAAAAAAAAAAAAAAAAAAAAAAAAAAAAAAAAAAAAAAAAAAAAAAAAABBIAAAAAAAAAAAAAAAAAAAAAAAAAAAAAAAAAAAAbW2ymIAAAAAAAAAAAAAAAAAAAAAAAAAAAAAAIPEAABBsdAAAAAAAAAAAAAAAAAAAAAAAAAAAAABIl50kll0e4AAAAAAAAAAAAAAAAAAAAAAAAAAAAABjGkkkklOAAAAAAAAAAAAAAAAAAAAAAAAAAAAACwkkgEkkTGQAAAAAAAAAAAAAAAAAAAAAAAAAAAMokkgXkkqPDoAAAAAAAAAAAAAAAAAAAAAAAAAAAFkkl7wkkiEmwAAAAAAAAAAAAAAAAAAAAAAAAAJ4ksEkEkkkkkuAAAAAAAAAAAAAAAAAAAAAAAAAADVDAkkkjEknQYAAAAAAAAAAAAAAAAAAAAAAABHCipzkkklyEkTU4AAAAAAAAAAAAAAAAAAAAAAABXAkuekkknolpSmAAAAAAAAAAAAAAAAAAAAAAAAAAkkkkkkkkkkkiAIAAAAAAAAAAAAAAAAAAAAAAIm0kkkkklkkkkl1AAAAAAAAAAAAAAAAAAAAAAAJF70kk7QldwkkklAIIAAAAAAAAAAAAAAAAAAAABNoCklslkksIkkklQIAAAAAAAAAAAAAAAAAAAAAIVskkzkpSkq0kT0kIAAAAAAAAAAAAAAAAAAAAABCkkkoUkrkkMkqUgwAAAAAAAAAAAAAAAAAAAAABJkkk4kkkkkkkkylwAAAAAAAAAAAAAAAAAAAAAABKEku0kkkkvkkrQqAAAAAAAAAAAAAAAAAAAAAABBGEku0kkkpykktEwAAAAAAAAAAAAAAAAAAAAABIAQUkkkkkkRkkkNOAAAAAAAAAAAAAAAAAAAAAABIIAkkkkkUkkkkoZAAAAAAAAAAAAAAAAAAAAAABIBAkgUkjUkkkTgiwAAAAAAAAAAAAAAAAAAAAAAAABMkxUl30kktml4AAAAAAAAAAAAAAAAAAAAAAAAAA+iWklUkkkTVAAAAAAAAAAAAAAAAAAAAAAAAAAABzzEkkkkksMYAAAAAAAAAAAAAAAAAAAAAAAAAAAAFEkkkklBgIAAAAAAAAAAAAAAAAAAAAAAAAAAAAACc8kj0MmgAAAAAAAAAAAAAAAAAAAAAAAAAAAAAAI4olUGqAAAAAAAAAAAAAAAAAAAAAAAAAAAAAAAABAFiKIAAAAAAAAAAAAAAAAAAAAAAAAAAAAAAAAAIAAAJAAAAAAAAAAAAAAAAAAAAAAAAAAAAAAAAABAAAAAAAAAAAAAAAAAAAAAAAAAAAAAAAAAAAAAJIAAAIBAAAAAAAAAAAAAAAAAAAAAAAAAAAAAAAIzAAAABWAAAAAAAAAAAAAAAAAAAAAAAAAAAAAABFIAAAACwAAAAAAAAAAAAAAAAAAAAAAAAAAAAAAAAAAAAAAAAAAAAAAAAAAAAAAAAAAAAAAAAAAAAAAAAAAAAAAAAAAAAAAAAAAAAAAAAAAAAAAAAAAAAAAAAAAAAAAAAAAAAAAAAAAAAAAAAAAAAAAAAAAAAAAAAAAAAAAAAAAAAAAAAAAAAAAAAAAAAAAAAAAAAAAAAAAAAAAAAAAAAAAAAAAAAAAAAAAAAAAAAAAAAAAAAAAAAAAAAAAAAAAAAAAAAAAAAAAAAAAAAAAAAAAAAAAAAAAAAAAAAAAAAAAAAAAAAAAAAAAAAAAAAAAAAAAAAAAAAAAAAAAAAAAAAAAAAAAAAAAAAAAAAAAAAAAAAAAAAAAAAAAAAAAAAAAAAAAAAAAAAAAAAAAAAAAAAAAAAAAAAAAAAAAAAAAAAAAAAAAAAAAAAAAAAAAAAAAAAAAAAAAAAAAAAAAAAAAAAAAAAAAAAAAAAAAAAAAAAAAAAAAAAAAAAAAAAAAAAAAAAAAAAAAAAAAAAAAAAAAAAAAAAAAAAAAAAAAAAAAAAAAAAAAAAAAAAAAAAAAAAAAAAAAAAAAAAAAAAAAAAAAAAAAAAAAAAAAAAAAAAAAAAAAAAAAAAAAAAAAAAAAAAAAAAAAAAAAAAAAAAAAAAAAAAAAAAAAAAAAAAAAAAAAAAAAAAAAAAAAAAAAAAAAAAAAAAAAAAAAAAAAAAAAAAAAAAAAAAAAAAAAAAAAAAAAAAAAAAAAAAAAAAAAAAAAAAAAAAAAAAAAAAAAAAAAAAAAAAAAAAAAAAAAAAAAAAAAAAAAAAAAAAAAAAAAAAAAAAAAAB//xAAlEQEAAgIBBAIDAQEBAAAAAAABABEhMRAgMEFQUWFAYHGggIH/2gAIAQMBAT8Q/wBOI/iC8sJfXPpn0z64yGqXqJ+P0FNOEGhxgGBp1BVYIlkoa4MbT31ynXK0XDi22GgdbnaqGOEHc88IjT712OEsqIbEpRSjt/ZBcxnn3YVogUV1oNQdOq3wp9MVnAkkf17m5ULrulKFSr5IqX0tfkgdYRIu4IQSmK/caOwVw4K2YJrqQdzLdcmKiI0+2E8Sl5ALZ9H4Xje21Tb+uMhLfkiWVFp8dhyoXK8pAFnRW0blb3P/AHRLKlivZIm+EX1Mdqi3ZxcEtKdnGh2HYuMS6M7+XGbGuMg+xFoRBwz6eosjDLGy4ha+ewO0o0x7LvoGMLn0xAAo4Fv2Jv8ALrRcK79iG3jYTSfkCxI7p8TBew2cZ2pgpsisHqpY3DMUctXKl8toV8sts5O0kBWn2GzjwR4ptgUV03+Jt9ho8JW8pW276XXCxy1gxxOCYEKeVmLPQoFs8wYgCznd7BZTtQroo6W0KdH8Y48z75d+wVdVClhoP4K53TAG4mTh0n2KpvqpdtxGsMYZ7VnUl7gWQ5dU9ljFXAw89DEWeBmVK7O6MCkqs7K6nsqKfMNFPEGy+8llQqoTed9aVB5gCxqLbb7NNkNDsgLZT4giWdzFIxe0IBfSI66UvLjAT761DLMvRS1xb37WwtzV96IneDHXydCPyEwZ3Clnz1ut0SlVLXNc2KPbDWSAfvh3+Hjxt9NHY3f7xkHFGHuBRsg/3EEplGFCy890EFnibzuaxv3fhgb/AAPB71pIreJWY3LOVE6AUNwTz+jZIo2RfJMQ3AF8m0MV8RMhkmC7gtfo6BeZ98U2z7Yp2/8AFZi2Ca7YK+JiP0AiiIre2JUVW3/Tl//EACgRAQACAgEEAgEDBQAAAAAAAAEAESExECAwQVBRYWBAcaCAgZGhsf/aAAgBAgEBPxD+Tj5KI8EZreZ98++BeYHEANbifP4CJlj+E2jwZZFaeLly+GWP7RFTLHXlj+E0r76lZvkWhNBojufWYULjvPApki6gRLPeimcDTcQsioBte3d4jGIBx7sBbFtuPUMXFc9Vfnz74H/piQGfv3Oan7JNdVDcayfSpYHTS8EU5ygjVRjAqshG/cbr7CDLj+0Yt9QpqY6vlbiCCz2yPmX3JFRPuIldF93Nb226f6nFQSrwkFGyHb57GGypZghFT0UNBPhUs/UGmyVD7IR1wZxuZYNwMCjioZW2aeM07AoHVTCj44wFvjE+xXDBDZPv4ehcHJKeRqOo0OwzxL9lQaBo6FkNM++YqreKj7FVxv8AUhbUSqPYrRxrZuT9QqDBVvmOx7DRxqPiPdtMFI6iedEcIwxBTMdzuBL+DEp4w9r/ABihoHsNfHmhptoi2302q67QLqIm+zr9ho4SDxlDQdICPAYeRqWmPjhnuMbByQUgN+gFUTwOURU84H2AwPYGskKNRFb0W9IteImHjo/fHjxfrkKPYC+qNYTaH6EYDZFNJAwa4Fk9iKJHHS2qaqCw5IODtW+OoUyRUpZ44uv7LIbojZeOgWIOSxMt2RZh0DLues8UX+fZXW+Irb6YlNd4abjbZqaBrqIQF+IrouABR7MVMdp7KKifYREae2zM+SZbe0Kry6UTfSLacZo/J1grRGq641xetQA17WlpyNKbYLWRADwdBnwMzY1AaHjrNptlhuVo7N81rb9sglMd/XGgbOPM1029jVfXGDPF+XuEBTGz8RFZL85I+GjvI0cxoGCbGnukueSUrfcqXxueb3vcwmsyxnASrGDpgArREdnF9E6X8AAUwfDMq1EVPKoG4H5l4XDM9VFb/B6W2T6IaxPrgDR/RWihv3a3IC8zLfgDNsAUdta4AKP5OX//xAAsEAEAAQMCBAYDAAMBAQAAAAABEQAhMUFRYXGBoRAgMFCRscHR8GDh8UCg/9oACAEBAAE/EP8A6JpgWMjndphHRvfU1qhypMxHydHQEv8AWytfT+gf8EzlECHVpTOMF7eYl6DUgY6LZzn2ohA3PdhA+Ku6+sAdisf/AAq7QK3VnTZPSjWb/tlmn50QzR8jUM2JzQMMl+VRYXzIaDeG21vJf5CsHcAj5Pfib/e2P28KE1lm0OIrHV0oFzNJ5E6HACtiibhzcvgLWbzgOO1JghRBCcRxS3GcKkyPCNBKKBbtOwOtn6X6oy5rJQ3sGLSbdc/FMSvW5cJNOc0utMBr8Uy6Ryos+5XdbI3Hn74EkeSETCJhKYoByFx4kk7l/Gxs2XeCamHklZzikRWg41HPzIBEEbI60w8Ull5EkePCAqPHkDkelZHgh0l9ODJQ03QCVxnLtxKEQRkcJ72TBPWyhdlS+S6nVigZQnCsn35SRSU+xdytQe4gwbFtD09HzwD90RQRdHQdThUi5wLhw4cXSpDeFkHvUVsoMgXFxm7sHGsG/wCkRVwa380xrQQDzm9IjpwOYN/MVC0+GTYnbFQ2xuyvzQ1ewkhqmzQIN+S1OCNBk3Ar3NuxOxolMWT3iTBFib0i9VNo1xXN2Ju8bUl3i8yggg8r4hDmZUfU0KoQlu6tOy4pbUCUAbjTaT5SV8P8qJ3o4PW0uTTJsmir0p0KP6OI+qDkKEq92HATX9OtACCJImvu5h+8bm0nhM96KAyDNACAg2PMymiSlBM/dTAK9ZdtQImjfHN2P7jR3jgYAweZ4w5APhoZE2SRT4mO1ABBYPAMAV4b6TTMA0auGnGNOHL3UUE0Ddki9stIA2MGM66KlFIU2GAYIJxq+L8ExqeAZaOz9B+1mgwHFEib+QJkllC/q6NAPQnho8Gm/kxNVqPEZOnuj3AOusL9KhdBQGORT6GRxE+GZ4Tc4D5SlAn0TcAUGiWHCkiNzbFz79AUTYRJ7LQ2Od2G8Xmu4A46ib+RzUMyWd6HHcVHknPehRVynLc4VN4Itxp9qrPrYQ+V1fcZSBhmRaC3DPSjiURzMLkdJ6UiFrI2uER9067wi9V4uLYJpHz4Do3+6GuRzEufhCDEBOgudwpYx0KNrT4N0AQ5H9ehkXzf4f8AfBPw9Cc/fbxUBXBT3zMHRwf21KBKwFOHsOzZxyjv4Nf4VNcHufihEEZH3CwcQzbB+O2jZ+QHB81DmG4ezQYClgLFBqG4m3kBL/TYa1Lt+xMOYx9VGlWVISYJ6+gCWX1w/Bq2wZIHxM0EFiawMB4oIjhq/wBmhQHRmiW5p3DcKJSkaDwG0mHoN+0004I97juvcJg2fhMPy6EJQ0rXY2rfTdz/AOjR8g2Caufww4tLUDWHTgp9z4AiwEtMyPDZgI4Izj22Q7ytw/1HgjWOSwN+FJnKgQdH1pJib+lArCS8xKQHLWZErZUk6n8Hg1OQx8NDaSpX1Pgav7oWBWGL0W1M4MAe1rAu1OeyyvSfzWCaUMhjdHAf2lCrbUbMjvTsyMGyk+Zs4oigkZ3zis2SSyfidClF2YVY5T9Q1ceMdJLPM8cFOPEnB25XqeH3RBfrL3oPboZ/Lc5NqGQQBJIfRccONfkVIQsaQnH8+E8LyNW4BqtJohAXukJJucqeraNPvSGRtvJGTm8/PtXdvCQko3rQou2Zox4YjqLwrtwRBHlIWuwopBRQUxw8QBAAbHlQEIJxp6UtgmpUlskeiNmIf3pSaWMwAytW+BJb/c67FstGfUBADAHtiSRRlrKCdvx4Z5wkgbEUpACALPlN20caAAAAYCmIAAQaPiVgjli6zGPiKRafML+an7HLGH0d6U1cvV/W8SYIZW9MwJyXXHkBgCUqVuUgCNyFRHHJOTceJ4zbgB6/4oKs3RF7k4NW+CikRQ13Xdcr7bmQoEurTUYJZkQ9HoAkgMiaUCHEKO1MFOTycYMCtACAANDyWeZAWIoYYJmGvkQ6xd1YHp9tAIAAIim4kfCWt4G7gK1CfNmIy99C7L01rW7AOLX8Gntt64WLC+B+XQq56EYDxyd3M1Gk66QYZu3z3+aN15YuaC1TBfWwdM/+EWYGSQ0Q0pGkSBaYo/YaLo6PgPC58IjmkHdoZEFRdIDlEPX27e8OgW487OSoAICAobLMNRgfb5pGZEm4+VqEtCVTbpTkOdeB6UrgUg1kX7+lxgiA/FCAUI6nls18GR6ULMcAyctqSG2vfDNoyah/umP0/QPbSeQZzriPlKVSVgZQp+Tr4XFH/qMkdaESNsQAYJeUUFYZBENzc8kfXgs7hx/RXDv0abrWQid+5/XT0ULJsgZXoEpCFKvWpfzLA7+GvmJ1gJpNUdqmajg5fgv9j7adPGd22GrV7DwLJkV1hjFp3pnFf0hTZRuRDxOPjFfRsVWOkHxQduUjchHh/umjkvKSfWH6XlwSGoXC0MDlZaaI4BgfR5mzNXpKApsbAeNNtkhMhomtSAqCF1mXqn4e2zPTKCTLA1DYzl2oO4cigC6I5VUBaIxNhXpHMqEQRkcPhM+oplo/gHpTeH1x/wB0eKGjow9FfgQcl2DWgMEZsHHNHyghqekDPSkTwzlUbrfyHLvV/eWHyPAu9KhGGeAR7c0Y7jMyDtd+agvpM5AwyXomwEAaHggkJI6Ux5K9yrzR0Si5J4tyrKQFJBJlL6eUWeMkN2OdKSBIiKeTnguW/M+cDvyuAqHyLAgnzoWRCQNkpWM/fQQQUIGemzY6xQ3m6MNupEHJ390gOXHuWH8PBaeI52hs62+TxYAYMoJld6JZ5JHUoCI5ksbxx8iYkmLjUVFjuFZdh/ukjXUzLHYnr51PSgLbicr/ABxpwiyNKntqVV3r/fzQPQ7+A72iJjMPY4y6UOpOKAgPdVYh4aC8nfZ6a1hW8oZLKH408EFwQaJb8/zwrJJXUm3Nl56T5cYVhU6+gdd3yLb8+GbpIOIfp8HzLn0nJOjGXQqGLB9/0mA93Oiu0sE0dNk64aS+lEkpmB+tKL2kK/rNbYNIzsP/AChu7GZGwaHqTggqD9SEQ6zvSEiWRI4wVCRcKWG3BRXiogn/AK+stHgNK3uvJtOXX3kDFMmhUwQyccnaj+IzSO8meZ1CiaBKJE5+moEtqEYeVir8jQAICAoMLSiAKdqdsQas6HH4pqUBbXd9g+9fe8u8xw7jkeJU4tyHZp2POpBuw4S5tzr81oSpUjxRpS66rxySFavKRCvs8mkBxg61MhLBAn5oRJGSl7lCg8RcfCTejGlni6fdSb7AQHJ++gogdzF13WV9+gRAgUcoXPmpipUOY4BPs60MISiMTUiR7UEPtxIHehVAAVJcfEyBuIsgI+35qOUbyPkqKEZUhuqZguD6F61SwMHoSvxURl5mHIz8pyqzgbJvBjovx/wLe5JOMv8ACmnI4S/gaXaYBl8J71gwYGOy+qso3HL70xImkpdKK2Lm/hTAg6we6fVNW9E2BJsAa7VbZJawSsZZ/wAEt+e36Ft9Mdi/Crqz2Vfj/BNzBDhZ/foWfnuDq/v+BGB7ngZeU1Jb2IfbRQTKpExh9ASeH+RTHhYMo4peFBWVggT8tCAgjcTX3/7l6BjtRN6uoAxFsGwUZUFlvczgq80ZaU3cWV6nouiZUwS4U2bPRpypS00fKlGEqVywhjgI43OPv5y3VaohKRx2Hkbil+UnKnMiKYUxLEGy1Y9Fi8T8tj9a0pFdiyNJEJylKkjyjmyUnVYMWI/+nL//2Q==;fontColor=default;" vertex="1" parent="7">
                    <mxGeometry x="225" y="170" width="220" height="220" as="geometry"/>
                </mxCell>
                <mxCell id="11" value="Score:" style="text;html=1;align=center;verticalAlign=middle;resizable=0;points=[];autosize=1;strokeColor=none;fillColor=none;fontSize=12;fontColor=default;" vertex="1" parent="7">
                    <mxGeometry x="305" y="405" width="60" height="30" as="geometry"/>
                </mxCell>
            </root>
        </mxGraphModel>
    </diagram>
</mxfile>